<?xml version="1.0" standalone="no"?><!DOCTYPE svg PUBLIC "-//W3C//DTD SVG 1.1//EN" "http://www.w3.org/Graphics/SVG/1.1/DTD/svg11.dtd"><svg class="icon" width="200px" height="200.00px" viewBox="0 0 1024 1024" version="1.1" xmlns="http://www.w3.org/2000/svg"><path d="M512 512m-512 0a512 512 0 1 0 1024 0 512 512 0 1 0-1024 0Z" fill="#EF5E5E" /><path d="M818.2 429.9l-202.8-29.5L525 217.2c-1.5-2.9-4-5.2-7-6.6-7.3-3.1-15.7 0.2-18.9 7.5l-90.4 183.3-202.3 29.5c-2.5 0.5-4.8 1.7-6.7 3.2-6 5.3-6.6 14.3-1.4 20.2l146.5 142.8-34.2 201.6c-0.5 3 0 6.1 1.4 8.9 3.6 7 12.3 9.9 19.3 6.3l180.9-94.2 180.9 94.2c2.7 1.4 5.8 1.8 8.9 1.4 7.9-1.3 13.1-8.6 11.9-16.4l-34.6-201.6 147-143.6c1.7-1.9 2.8-4.2 3.2-6.7 1.6-7.9-3.5-15.5-11.3-17.1zM575 547.5l-22.3 22.3-30 30c-5.8 5.8-15.3 5.8-21.2 0l-30.1-30.1-22.2-22.2c-17.6-17.6-17.6-46.1 0-63.7 17.4-17.4 45.3-17.6 62.9-0.7 17.6-16.8 45.5-16.6 62.9 0.7 17.6 17.6 17.6 46.1 0 63.7z" fill="#FFFFFF" opacity=".9" /><path d="M616.7 400L525 217.3c-3.6-7.1-12.2-10-19.3-6.4-2.8 1.4-5 3.6-6.4 6.4l-90.4 183.3-203 29.5c-7.8 1.6-12.8 9.1-11.3 16.9 0.5 2.5 1.7 4.8 3.2 6.7l147 143.5-13.9 80.1c138.4-5.7 262.3-87.2 322.4-212 9.2-18.2 17.1-37.1 23.6-56.5l-60.2-8.8zM575 547.5l-22.3 22.3-30 30c-5.8 5.8-15.3 5.8-21.2 0l-30.1-30.1-22.2-22.2c-17.6-17.6-17.6-46.1 0-63.7 17.4-17.4 45.3-17.6 62.9-0.7 17.6-16.8 45.5-16.6 62.9 0.7 17.6 17.6 17.6 46.1 0 63.7z" fill="#FFFFFF" /></svg>