<?xml version="1.0" standalone="no"?><!DOCTYPE svg PUBLIC "-//W3C//DTD SVG 1.1//EN" "http://www.w3.org/Graphics/SVG/1.1/DTD/svg11.dtd"><svg class="icon" width="200px" height="200.00px" viewBox="0 0 1024 1024" version="1.1" xmlns="http://www.w3.org/2000/svg"><path d="M273.664 224H102.4v171.264a77.0304 77.0304 0 0 0 76.8 76.8h171.264v-171.264a77.0304 77.0304 0 0 0-76.8-76.8z" fill="#EE7C3D" /><path d="M390.144 184.32v205.824H184.32V184.32h205.824m5.12-81.92H179.2a77.0304 77.0304 0 0 0-76.8 76.8v216.064a77.0304 77.0304 0 0 0 76.8 76.8h216.064a77.0304 77.0304 0 0 0 76.8-76.8V179.2a77.0304 77.0304 0 0 0-76.8-76.8z" fill="#333333" /><path d="M723.2 224h-171.264v171.264a77.0304 77.0304 0 0 0 76.8 76.8h171.264v-171.264a77.0304 77.0304 0 0 0-76.8-76.8z" fill="#EE7C3D" /><path d="M839.68 184.32v205.824h-205.824V184.32H839.68m5.12-81.92h-216.064a77.0304 77.0304 0 0 0-76.8 76.8v216.064a77.0304 77.0304 0 0 0 76.8 76.8H844.8a77.0304 77.0304 0 0 0 76.8-76.8V179.2a77.0304 77.0304 0 0 0-76.8-76.8z" fill="#333333" /><path d="M273.664 673.536H102.4V844.8a77.0304 77.0304 0 0 0 76.8 76.8h171.264v-171.264a77.0304 77.0304 0 0 0-76.8-76.8z" fill="#EE7C3D" /><path d="M390.144 633.856V839.68H184.32v-205.824h205.824m5.12-81.92H179.2a77.0304 77.0304 0 0 0-76.8 76.8V844.8a77.0304 77.0304 0 0 0 76.8 76.8h216.064a77.0304 77.0304 0 0 0 76.8-76.8v-216.064a77.0304 77.0304 0 0 0-76.8-76.8z" fill="#333333" /><path d="M723.2 673.536h-171.264V844.8a77.0304 77.0304 0 0 0 76.8 76.8h171.264v-171.264a77.0304 77.0304 0 0 0-76.8-76.8z" fill="#EE7C3D" /><path d="M839.68 633.856V839.68h-205.824v-205.824H839.68m5.12-81.92h-216.064a77.0304 77.0304 0 0 0-76.8 76.8V844.8a77.0304 77.0304 0 0 0 76.8 76.8H844.8a77.0304 77.0304 0 0 0 76.8-76.8v-216.064a77.0304 77.0304 0 0 0-76.8-76.8z" fill="#333333" /></svg>