<?xml version="1.0" standalone="no"?><!DOCTYPE svg PUBLIC "-//W3C//DTD SVG 1.1//EN" "http://www.w3.org/Graphics/SVG/1.1/DTD/svg11.dtd"><svg class="icon" width="200px" height="200.00px" viewBox="0 0 1024 1024" version="1.1" xmlns="http://www.w3.org/2000/svg"><path fill="#333333" d="M324.04992 890.47552m-51.2 0a51.2 51.2 0 1 0 102.4 0 51.2 51.2 0 1 0-102.4 0Z"  /><path fill="#333333" d="M713.16992 889.27744m-51.2 0a51.2 51.2 0 1 0 102.4 0 51.2 51.2 0 1 0-102.4 0Z"  /><path fill="#333333" d="M878.79168 251.32544l-719.24736 2.21696-25.43616-141.70624a35.84 35.84 0 1 0-70.5536 12.66688l23.20384 129.26464h-0.19456l84.82304 481.25952a61.44 61.44 0 0 0 60.69248 50.77504l557.4144-1.72032a61.42976 61.42976 0 0 0 58.89536-44.5952l109.42464-383.78496c14.96064-52.41856-24.50944-104.54528-79.02208-104.37632z m10.09664 84.72576l-107.31008 376.37632-541.09184 1.664-68.54656-388.91008 707.07712-2.18112a9.7792 9.7792 0 0 1 8.19712 4.06016 9.7792 9.7792 0 0 1 1.67424 8.99072z"  /><path fill="#333333" d="M684.79488 561.19808l-337.92 1.03936a35.84 35.84 0 0 0 0.22528 71.67488l337.92-1.03936a35.84 35.84 0 1 0-0.22528-71.67488z"  /></svg>