<?xml version="1.0" standalone="no"?><!DOCTYPE svg PUBLIC "-//W3C//DTD SVG 1.1//EN" "http://www.w3.org/Graphics/SVG/1.1/DTD/svg11.dtd"><svg class="icon" width="200px" height="200.00px" viewBox="0 0 1024 1024" version="1.1" xmlns="http://www.w3.org/2000/svg"><path fill="#333333" d="M979.2 422.4l-448-384h-6.4-6.4H512h-6.4-6.4-6.4-6.4-6.4l-448 384c6.4 6.4 0 19.2 0 25.6 0 6.4 0 12.8 6.4 19.2 6.4 6.4 19.2 12.8 25.6 12.8 6.4 0 12.8 0 19.2-6.4l44.8-38.4v492.8c0 19.2 12.8 32 32 32h704c19.2 0 32-12.8 32-32V435.2l44.8 38.4c6.4 6.4 12.8 6.4 19.2 6.4 6.4 0 19.2-6.4 25.6-12.8 6.4-6.4 6.4-12.8 6.4-19.2 0-6.4-6.4-19.2-12.8-25.6zM832 896H192V377.6l320-275.2 320 275.2V896z"  /><path fill="#333333" d="M326.4 640c0 102.4 83.2 185.6 185.6 185.6s185.6-83.2 185.6-185.6S614.4 454.4 512 454.4 326.4 537.6 326.4 640z m320 0c0 76.8-64 134.4-134.4 134.4-76.8 0-134.4-64-134.4-134.4s64-134.4 134.4-134.4c76.8 0 134.4 57.6 134.4 134.4z"  /></svg>