<?xml version="1.0" standalone="no"?><!DOCTYPE svg PUBLIC "-//W3C//DTD SVG 1.1//EN" "http://www.w3.org/Graphics/SVG/1.1/DTD/svg11.dtd"><svg class="icon" width="200px" height="200.00px" viewBox="0 0 1024 1024" version="1.1" xmlns="http://www.w3.org/2000/svg"><path fill="#333333" d="M709.11130346 447.3057376c-16.44441707-14.67951254-33.3191392-30.21089707-50.17201919-46.16166507-16.80700907-15.80878933-31.18836587-29.44858027-43.93915094-41.66858346l-33.68173121-31.08570454c-9.25810773-8.68254721-14.26995839-13.40170347-15.90599039-15.0322752-15.22230826-14.12907093-32.44433173-21.29353813-51.1898976-21.29353812-1.06702507 0-2.13077331 0.01856641-3.19561491 0.0688053-20.4951808 0.96436373-37.49768427 7.90821761-51.91726615 21.17012589-2.30005548 2.297872-7.43641067 7.14699306-17.3650944 16.49247147-10.06520213 9.46452268-21.54800747 20.0441248-34.12951147 31.4231776l-5.69553279 5.18768534c-12.09877546 11.05250027-25.26020693 23.0748256-39.55419095 36.05714559-16.25110828 14.86954559-33.0559328 30.24038506-49.48506026 45.69204373-47.85121281 43.54270293-89.67160319 81.69567359-131.52475946 119.99717547v344.54423788c0 13.65944959 4.66454828 23.86772268 14.24702292 31.17525971 9.60868587 7.3424864 22.92738666 11.06451412 39.58586347 11.06451521H789.35770133c15.94967573-0.5253216 28.7736352-5.6693216 38.08634988-15.30749547 9.32363627-9.51039252 14.03842348-20.65900267 14.03842347-33.10617173V569.97539093c-36.86205546-34.2474624-71.0854912-65.93275411-102.62989655-95.13450985L709.11130346 447.3057376z"  /><path fill="#333333" d="M954.9409824 479.52836482c-0.50784746-13.5633408-6.85102187-26.20272747-18.88208321-37.60689921l-22.20111039-22.19892589c-11.14970132-11.14970132-25.150992-24.72287147-41.63581867-40.34053545-15.2878368-14.38463361-32.63873387-31.14904853-54.60066452-52.75275627-19.57122667-19.2512288-39.99978667-39.13808531-60.71667308-59.0948384-19.32112533-18.5042016-38.34409598-36.92540053-57.19232319-55.1609344l-3.98414187-3.85090133c-12.83269653-12.42095787-24.8692192-24.05011093-36.12376639-34.91148587l-18.44522669-17.81505919c-16.23472533-15.6984832-29.98700693-29.01936748-41.25356798-39.95828481-11.11584532-10.9061536-18.53914987-17.89150827-22.18582082-20.88507626-17.523456-17.01233279-38.94586773-25.63699628-63.66327787-25.63699625l-1.36518079 0.00873704c-25.7090784 0.31890667-49.05257067 11.0066304-71.33559145 32.63654936-3.0055808 3.01431787-13.85494293 13.17453759-31.56078721 29.71724799-17.46666454 16.31336-38.16279999 35.75898987-62.19543679 58.34781119l-2.53595948 2.38196694c-27.42920533 25.88928212-56.66044907 53.11644053-81.64325013 76.33215253l-31.45484907 29.27056106c-17.645776 16.42585065-34.49210239 32.11668907-50.60996906 47.06486827-23.29871574 21.60807573-43.59294187 40.58517653-60.90342935 56.76092586l-5.49130238 5.1472768c-17.75171413 16.69997975-28.4667424 26.78265599-32.00965866 30.32557227-9.04186347 8.52090987-13.88880001 20.1402336-14.40429122 34.52705067-0.51986027 14.38463361 4.93321601 26.81869653 16.21178987 36.95051946 9.72882134 8.6410464 20.97135574 12.84470933 34.34247894 12.8447104 0.77433067 0 1.54866027-0.01528959 2.33391253-0.04259413 14.5178752-0.53405867 25.7396576-4.13704319 34.32063681-11.04485548 2.85814187-2.2465408 10.90396907-9.46233814 26.08696-23.39591679 13.859312-12.6120832 30.10605119-27.82128533 51.82552532-48.2596736 19.69791573-18.6297984 41.41083733-38.7514656 64.401568-60.05046505l1.22866241-1.13146135c21.05654293-19.42706347 42.49315202-39.44497709 67.43882132-62.9948864 21.33940799-20.1435104 40.27828373-37.88976426 56.30331734-52.74292693 16.25875307-15.0552096 27.30033173-25.23617921 33.1596864-30.5505536 18.12850454-16.25329173 36.7746848-24.76437333 55.41758826-25.31590613 0.68695894-0.02075094 1.37719359-0.03167253 2.0576-0.03167147 18.0302112 0 36.61086293 8.53183146 55.21445014 25.32464213 4.66673279 4.0485792 15.34572051 14.099584 29.31315413 27.566816 17.73423999 16.9904896 36.23953388 34.57838187 54.98509867 52.28313387 21.32848747 20.13695786 43.95662613 41.56919787 67.87895573 64.3010912 10.02806933 9.49837973 19.7732736 18.73792107 29.25745493 27.72408426 13.23788162 12.55529172 25.95153387 24.61147307 38.18901122 36.15762241 12.94409493 12.21017386 54.12994987 50.9856672 54.12994986 50.98566721 15.80005227 14.88920427 24.28710614 22.5232928 27.01309867 24.73706879 8.55804267 7.41784427 20.07907413 11.43912 34.26384425 11.96225706 0.84641172 0.03494827 1.69173121 0.05351468 2.52613014 0.05351574 13.03911146 0 24.8102432-4.6154016 34.9508032-13.68347734C951.03547413 504.36045014 955.47285653 493.25989547 954.9409824 479.52836482z"  /></svg>