<?xml version="1.0" standalone="no"?><!DOCTYPE svg PUBLIC "-//W3C//DTD SVG 1.1//EN" "http://www.w3.org/Graphics/SVG/1.1/DTD/svg11.dtd"><svg class="icon" width="200px" height="200.00px" viewBox="0 0 1024 1024" version="1.1" xmlns="http://www.w3.org/2000/svg"><path fill="#333333" d="M524.6464 571.3408c-121.2416 0-219.904-98.6624-219.904-219.904 0-121.2928 98.6624-219.904 219.904-219.904s219.904 98.6624 219.904 219.904c0 121.2416-98.6624 219.904-219.904 219.904z m0-398.8992c-98.6624 0-178.944 80.2816-178.944 178.944 0 98.6624 80.2816 178.944 178.944 178.944s178.944-80.2816 178.944-178.944c0-98.6624-80.2816-178.944-178.944-178.944z"  /><path fill="#333333" d="M862.6688 898.2016a20.4288 20.4288 0 0 1-20.3776-18.8416c-13.0048-164.4544-152.5248-293.2736-317.5936-293.2736s-304.5888 128.8192-317.5936 293.2736a20.40832 20.40832 0 0 1-22.016 18.7904c-11.264-0.8704-19.712-10.752-18.7904-22.016 7.1168-89.9072 47.5648-173.3632 113.8688-234.9568 66.6624-61.952 153.5488-96.0512 244.5824-96.0512s177.92 34.0992 244.5824 96.0512c66.304 61.5936 106.752 144.9984 113.8688 234.9568 0.8704 11.264-7.5264 21.1456-18.7904 22.016-0.6656 0.0512-1.2288 0.0512-1.7408 0.0512z"  /></svg>